<svg xmlns="http://www.w3.org/2000/svg" viewBox="0 0 487.6 167.88"><defs><style>.cls-1{fill:#cb3233;}.cls-2{fill:#353738;}</style></defs><g id="Layer_2" data-name="Layer 2"><g id="Construction"><path class="cls-1" d="M62.52,41,75.86,1.12H89.19L64,76.53,44.71,32.16,25.44,76.53,0,1.12H13.33L26.78,41.24,44.71,0Z"/><path class="cls-1" d="M105.55,64.77l-4.7,10.08H87L121.13,1.12l32.49,73.73H139.84l-4.48-10.08Zm15.24-33.06L111.38,52.1h18.38Z"/><path class="cls-1" d="M205.28,74.85,180.52,42.36V74.85H168l-.12-73.73h27A29.36,29.36,0,0,1,205,2.86a25.37,25.37,0,0,1,8.35,5,21.92,21.92,0,0,1,5.49,7.23,20.23,20.23,0,0,1-2.47,21.12,21.57,21.57,0,0,1-9.41,7,31.73,31.73,0,0,1-4.65,1.35,21,21,0,0,1-3.87.55l22.41,29.81ZM180.52,13.78V33.62h11A25.63,25.63,0,0,0,202,31.82a10.5,10.5,0,0,0,4.26-3.25,7.72,7.72,0,0,0,1.79-4.93,8.48,8.48,0,0,0-3.14-6.49q-3.69-3.37-10.08-3.37Z"/><path class="cls-1" d="M249.43,31V74.85H236.88V0l45.49,45.49V1.12h12.55V76.53Z"/><path class="cls-1" d="M315.65,74.85V1.12h12.66V74.85Z"/><path class="cls-1" d="M361.7,31V74.85H349.15V0l45.49,45.49V1.12h12.55V76.53Z"/><path class="cls-1" d="M487.31,74.85H459.63a35.8,35.8,0,0,1-18.54-5,37.11,37.11,0,0,1-13.45-13.55,36.53,36.53,0,0,1-5-18.66,36.53,36.53,0,0,1,5-18.66A37.58,37.58,0,0,1,441.09,5.38a35.56,35.56,0,0,1,18.54-5,36.79,36.79,0,0,1,14.9,3.13,35.21,35.21,0,0,1,12.33,9l-9.3,8.4A23.55,23.55,0,0,0,469.38,15a24.6,24.6,0,0,0-9.75-2,23.6,23.6,0,0,0-12.21,3.3,24.72,24.72,0,0,0-8.91,9,24.81,24.81,0,0,0,0,24.76,24.72,24.72,0,0,0,8.91,9,23.6,23.6,0,0,0,12.21,3.3h15.13V46.73H457.17V34.18h30.14Z"/><path class="cls-2" d="M0,114.68,0,93.45H7.58a7.31,7.31,0,0,1,3.44.82,6.62,6.62,0,0,1,2.52,2.18,5.3,5.3,0,0,1,0,6,6.59,6.59,0,0,1-2.52,2.2,7.31,7.31,0,0,1-3.44.82H1.5v9.21ZM1.5,103.93H7.58a6.15,6.15,0,0,0,2.71-.6,5.19,5.19,0,0,0,2-1.63,3.81,3.81,0,0,0,0-4.51,5.1,5.1,0,0,0-2-1.63A6,6,0,0,0,7.58,95H1.47Z"/><path class="cls-2" d="M35.37,114.91A10.46,10.46,0,0,1,30,113.45a10.88,10.88,0,0,1,0-18.77,10.7,10.7,0,0,1,14.69,3.95,10.89,10.89,0,0,1-3.91,14.82A10.49,10.49,0,0,1,35.37,114.91Zm0-20.19A8.93,8.93,0,0,0,30.73,96a9.42,9.42,0,0,0-3.38,3.4,9.34,9.34,0,0,0,0,9.37,9.42,9.42,0,0,0,3.38,3.4,9.22,9.22,0,0,0,9.27,0,9.31,9.31,0,0,0,3.37-3.4,9.47,9.47,0,0,0,0-9.37A9.31,9.31,0,0,0,40,96,8.9,8.9,0,0,0,35.37,94.72Z"/><path class="cls-2" d="M69.92,114.68,61.1,104h2.61a10.48,10.48,0,0,0,3.92-.62,5.3,5.3,0,0,0,1.93-1.59,3.76,3.76,0,0,0,.82-2.33,3.85,3.85,0,0,0-.69-2.18,5.17,5.17,0,0,0-2-1.68,6.43,6.43,0,0,0-2.94-.65H58.85v19.76H57.38V93.45h7.41a8.33,8.33,0,0,1,2.81.47,7,7,0,0,1,2.29,1.36,6.09,6.09,0,0,1,1.45,1.93,5.08,5.08,0,0,1,.51,2.22,5.16,5.16,0,0,1-1.08,3.21,6.19,6.19,0,0,1-2.55,2,6.63,6.63,0,0,1-2,.58,18.75,18.75,0,0,1-2,.11l7.68,9.31Z"/><path class="cls-2" d="M100.55,93.45V95H92.16v19.73h-1.5V95H82.23v-1.5Z"/><path class="cls-2" d="M111.82,114.68V93.45h13.75V95H113.29v8.36h9.6v1.54h-9.6v9.83Z"/><path class="cls-2" d="M146.14,114.91a10.49,10.49,0,0,1-5.39-1.46,10.88,10.88,0,0,1,0-18.77,10.68,10.68,0,0,1,10.78,0,10.88,10.88,0,0,1,0,18.77A10.49,10.49,0,0,1,146.14,114.91Zm0-20.19A8.93,8.93,0,0,0,141.5,96a9.49,9.49,0,0,0-3.38,3.4,9.4,9.4,0,0,0,0,9.37,9.49,9.49,0,0,0,3.38,3.4,9.24,9.24,0,0,0,9.28,0,9.36,9.36,0,0,0,3.36-3.4,9.47,9.47,0,0,0,0-9.37,9.36,9.36,0,0,0-3.36-3.4A8.93,8.93,0,0,0,146.14,94.72Z"/><path class="cls-2" d="M168.15,114.68V93.45h1.47v19.76h11.92v1.47Z"/><path class="cls-2" d="M194.05,114.68V93.45h1.47v21.23Z"/><path class="cls-2" d="M218.12,114.91a10.46,10.46,0,0,1-5.39-1.46,10.88,10.88,0,0,1,0-18.77,10.72,10.72,0,0,1,14.69,3.95,11,11,0,0,1,0,10.87,10.75,10.75,0,0,1-9.3,5.41Zm0-20.19A8.91,8.91,0,0,0,213.48,96a9.42,9.42,0,0,0-3.38,3.4,9.34,9.34,0,0,0,0,9.37,9.42,9.42,0,0,0,3.38,3.4,9.22,9.22,0,0,0,9.27,0,9.38,9.38,0,0,0,0-16.17A8.9,8.9,0,0,0,218.12,94.72Z"/><path class="cls-2" d="M274.74,110.47l5.26-17h1.57L274.87,115l-6-15.81L262.73,115,256,93.45h1.53l5.33,17.08,6-15.41Z"/><path class="cls-2" d="M292.7,114.68V93.45h13.75V95H294.17v8.36h9.57v1.5h-9.57v8.33h12.28v1.54Z"/><path class="cls-2" d="M332.37,105.55a5.11,5.11,0,0,1,1.06,3.15,5.26,5.26,0,0,1-.51,2.24,5.92,5.92,0,0,1-1.45,1.94,7,7,0,0,1-2.3,1.32,8.2,8.2,0,0,1-2.8.48h-7.8l0-21.23h6.08a6.6,6.6,0,0,1,4.73,1.67,5.21,5.21,0,0,1,1.26,1.73,4.9,4.9,0,0,1,.44,2,4.92,4.92,0,0,1-2.09,4l-.29.2c.41.13.77.26,1.07.39A6.38,6.38,0,0,1,332.37,105.55Zm-12.3-2.86h4.54a9.94,9.94,0,0,0,1.47-.09,6.74,6.74,0,0,0,1.18-.33,4.63,4.63,0,0,0,1.61-1.24,3.19,3.19,0,0,0,.77-2.16,3.52,3.52,0,0,0-.57-1.91,4.08,4.08,0,0,0-1.7-1.45,6,6,0,0,0-2.69-.56h-4.61Zm9.24,9.87a5,5,0,0,0,2-1.69,3.82,3.82,0,0,0,.69-2.17,3.66,3.66,0,0,0-.8-2.3,5,5,0,0,0-1.91-1.52,9.86,9.86,0,0,0-3.95-.68h-5.23v9h6.3A6.43,6.43,0,0,0,329.31,112.56Z"/><path class="cls-2" d="M358.56,106.46a4.65,4.65,0,0,1,.83,2.63,4.84,4.84,0,0,1-.59,2.31,5.88,5.88,0,0,1-1.7,1.91,9,9,0,0,1-5.32,1.63,9.41,9.41,0,0,1-2.87-.43,8.23,8.23,0,0,1-2.45-1.2,5.49,5.49,0,0,1-2.26-3.37l1.41-.78a3.68,3.68,0,0,0,1.76,2.94,6.09,6.09,0,0,0,2,1,8.38,8.38,0,0,0,2.42.35,7.2,7.2,0,0,0,4.41-1.34,3.69,3.69,0,0,0,1.73-3,3.15,3.15,0,0,0-.64-1.89,5,5,0,0,0-1.78-1.5,12.46,12.46,0,0,0-3.85-.89c-.15,0-.7-.1-1.65-.26a8.85,8.85,0,0,1-2.43-.71,6.6,6.6,0,0,1-2.52-2.08,4.72,4.72,0,0,1-.91-2.79,4.53,4.53,0,0,1,.6-2.27,6.22,6.22,0,0,1,1.72-1.88,8.49,8.49,0,0,1,2.45-1.21,9.72,9.72,0,0,1,2.87-.42,8.88,8.88,0,0,1,5.32,1.63,5.33,5.33,0,0,1,2.23,3.33l-1.41.79a3.33,3.33,0,0,0-.47-1.57A4.9,4.9,0,0,0,356.19,96a6.47,6.47,0,0,0-2-1,8.61,8.61,0,0,0-4.79,0,6.11,6.11,0,0,0-2,1,4.6,4.6,0,0,0-1.3,1.39,3,3,0,0,0-.46,1.58,3.35,3.35,0,0,0,.75,2,5.26,5.26,0,0,0,1.86,1.55,6,6,0,0,0,1.52.47c.56.1,1.27.2,2.14.31l1.14.17a12.61,12.61,0,0,1,1.77.36,6.19,6.19,0,0,1,1.43.55A7,7,0,0,1,358.56,106.46Z"/><path class="cls-2" d="M371.83,114.68V93.45h1.47v21.23Z"/><path class="cls-2" d="M403.12,93.45V95h-8.39v19.73h-1.51V95H384.8v-1.5Z"/><path class="cls-2" d="M414.39,114.68V93.45h13.74V95H415.85v8.36h9.57v1.5h-9.57v8.33h12.28v1.54Z"/><path class="cls-2" d="M458.34,114.68V93.45h1.47v21.23Z"/><path class="cls-2" d="M486.48,106.46a4.65,4.65,0,0,1,.83,2.63,4.84,4.84,0,0,1-.59,2.31,5.88,5.88,0,0,1-1.7,1.91,9,9,0,0,1-5.32,1.63,9.41,9.41,0,0,1-2.87-.43,8.11,8.11,0,0,1-2.45-1.2,5.45,5.45,0,0,1-2.26-3.37l1.41-.78a3.68,3.68,0,0,0,1.76,2.94,6.09,6.09,0,0,0,2,1,8.33,8.33,0,0,0,2.42.35,7.2,7.2,0,0,0,4.41-1.34,3.69,3.69,0,0,0,1.73-3,3.15,3.15,0,0,0-.64-1.89,5.12,5.12,0,0,0-1.78-1.5,12.54,12.54,0,0,0-3.85-.89c-.15,0-.7-.1-1.65-.26a8.85,8.85,0,0,1-2.43-.71,6.6,6.6,0,0,1-2.52-2.08,4.72,4.72,0,0,1-.91-2.79,4.53,4.53,0,0,1,.6-2.27,6.09,6.09,0,0,1,1.72-1.88,8.37,8.37,0,0,1,2.45-1.21,9.72,9.72,0,0,1,2.87-.42A8.9,8.9,0,0,1,485,94.82a5.31,5.31,0,0,1,2.22,3.33l-1.4.79a3.33,3.33,0,0,0-.47-1.57A4.9,4.9,0,0,0,484.11,96a6.52,6.52,0,0,0-2-1,8.15,8.15,0,0,0-2.38-.34,8.34,8.34,0,0,0-2.4.34,6.11,6.11,0,0,0-2,1A4.64,4.64,0,0,0,474,97.39a3.09,3.09,0,0,0-.45,1.58,3.35,3.35,0,0,0,.75,2,5.26,5.26,0,0,0,1.86,1.55,5.87,5.87,0,0,0,1.52.47c.55.1,1.27.2,2.14.31l1.14.17a12.18,12.18,0,0,1,1.76.36,6.11,6.11,0,0,1,1.44.55A7,7,0,0,1,486.48,106.46Z"/><path class="cls-2" d="M12.24,167.46a12,12,0,0,1-4.73-.94,11.77,11.77,0,0,1-3.93-2.69A12.45,12.45,0,0,1,0,155.08V136.2H5.32v18.88a7.23,7.23,0,0,0,.52,2.75,6.95,6.95,0,0,0,6.4,4.36,6.7,6.7,0,0,0,2.64-.54,7.15,7.15,0,0,0,3.72-3.82,7.42,7.42,0,0,0,.51-2.75V136.2h5.32v18.88a12.46,12.46,0,0,1-.91,4.71,13.07,13.07,0,0,1-2.62,4,12.18,12.18,0,0,1-4,2.69A11.89,11.89,0,0,1,12.24,167.46Z"/><path class="cls-2" d="M35.59,148.77v18.41H30.32V135.73l19.11,19.11V136.2h5.28v31.68Z"/><path class="cls-2" d="M70.71,167.18H61v-31h9.7a15.38,15.38,0,0,1,6.1,1.22A14.05,14.05,0,0,1,81.73,141a14.6,14.6,0,0,1,2.94,4.9,17.24,17.24,0,0,1,0,11.63,15,15,0,0,1-2.94,4.94A13.81,13.81,0,0,1,76.81,166,15.22,15.22,0,0,1,70.71,167.18Zm-4.42-5.27h4.42a9.78,9.78,0,0,0,3.93-.78,9,9,0,0,0,3.14-2.24,10.14,10.14,0,0,0,2-3.29,11.69,11.69,0,0,0,.68-4,11.28,11.28,0,0,0-.68-3.88,10.31,10.31,0,0,0-2-3.28,8.93,8.93,0,0,0-7.07-3H66.29Z"/><path class="cls-2" d="M90.25,167.18v-31h19.59v5.32H95.57V149H106.3v5.33H95.57v7.58h14.27v5.27Z"/><path class="cls-2" d="M130.88,167.18l-10.41-13.66v13.66H115.2l0-31H126.5a12.22,12.22,0,0,1,4.26.73,10.6,10.6,0,0,1,3.51,2.09,9.38,9.38,0,0,1,2.31,3,8.48,8.48,0,0,1-1,8.87,9.08,9.08,0,0,1-3.95,2.92,13.2,13.2,0,0,1-2,.57,8.43,8.43,0,0,1-1.62.23l9.41,12.53Zm-10.41-25.66v8.33h4.62a10.79,10.79,0,0,0,4.42-.75,4.38,4.38,0,0,0,1.79-1.37,3.23,3.23,0,0,0,.76-2.07,3.58,3.58,0,0,0-1.32-2.73,6.08,6.08,0,0,0-4.24-1.41Z"/><path class="cls-2" d="M168.35,167.46a15,15,0,0,1-7.83-2.14,15.69,15.69,0,0,1-5.7-5.77,15.82,15.82,0,0,1,5.7-21.56,15.19,15.19,0,0,1,7.83-2.12,15.62,15.62,0,0,1,6.34,1.34,15.3,15.3,0,0,1,5.25,3.84L176,144.58a10.53,10.53,0,0,0-3.51-2.54,10.18,10.18,0,0,0-9.37.52,10.6,10.6,0,0,0,0,18.19,10,10,0,0,0,9.63.4,10.77,10.77,0,0,0,3.6-2.87l4.15,3.29a15.56,15.56,0,0,1-12.2,5.89Z"/><path class="cls-2" d="M199.05,167.46a15.2,15.2,0,0,1-7.84-2.12,15.74,15.74,0,0,1-5.72-5.74,15.82,15.82,0,0,1,0-15.82,15.74,15.74,0,0,1,5.72-5.74,15.56,15.56,0,0,1,15.68,0,15.74,15.74,0,0,1,5.72,5.74,15.82,15.82,0,0,1,0,15.82,15.74,15.74,0,0,1-5.72,5.74A15.22,15.22,0,0,1,199.05,167.46Zm0-26.27a10,10,0,0,0-5.2,1.41,10.57,10.57,0,0,0,0,18.17,10.23,10.23,0,0,0,10.4,0,10.56,10.56,0,0,0,0-18.17A10,10,0,0,0,199.05,141.19Z"/><path class="cls-2" d="M224.38,148.77v18.41H219.1V135.73l19.12,19.11V136.2h5.27v31.68Z"/><path class="cls-2" d="M270.4,154a7.72,7.72,0,0,1,1.34,4.33,7.55,7.55,0,0,1-1,3.7,9.52,9.52,0,0,1-2.75,3.08,12.22,12.22,0,0,1-3.65,1.81,14.5,14.5,0,0,1-8.52,0,12.22,12.22,0,0,1-3.65-1.81,8.54,8.54,0,0,1-3.11-4l4.71-2.68a2.49,2.49,0,0,0,.52,1.37,4.36,4.36,0,0,0,1,1,7.41,7.41,0,0,0,2.19,1,8.82,8.82,0,0,0,2.56.38,8.93,8.93,0,0,0,2.57-.38,7.65,7.65,0,0,0,2.19-1,3.23,3.23,0,0,0,1.55-2.49,2.74,2.74,0,0,0-.61-1.65,5.1,5.1,0,0,0-1.65-1.36,14.16,14.16,0,0,0-4.43-1,19,19,0,0,1-5.83-1.37,9.28,9.28,0,0,1-4-3.29,8.12,8.12,0,0,1-1.41-4.57,7.65,7.65,0,0,1,1-3.7,9.87,9.87,0,0,1,2.71-3.08,12.22,12.22,0,0,1,3.65-1.81,14.5,14.5,0,0,1,8.52,0,12.22,12.22,0,0,1,3.65,1.81,8.71,8.71,0,0,1,3.15,4L266.42,145a3.27,3.27,0,0,0-1.55-2.44,7.65,7.65,0,0,0-2.19-1,8.93,8.93,0,0,0-2.57-.38,8.82,8.82,0,0,0-2.56.38,7.41,7.41,0,0,0-2.19,1,3.22,3.22,0,0,0-1.56,2.49,2.91,2.91,0,0,0,.66,1.77,4.22,4.22,0,0,0,1.84,1.34,8.3,8.3,0,0,0,1.79.52c.69.12,1.49.25,2.4.37a19.47,19.47,0,0,1,6.21,1.56A10.43,10.43,0,0,1,270.4,154Z"/><path class="cls-2" d="M297.92,136.2v5.32h-9.33v25.66h-5.27V141.52h-9.27V136.2Z"/><path class="cls-2" d="M317.92,167.18l-10.4-13.66v13.66h-5.27l-.05-31h11.35a12.3,12.3,0,0,1,4.26.73,10.55,10.55,0,0,1,3.5,2.09,9.11,9.11,0,0,1,2.31,3,8.48,8.48,0,0,1-1,8.87,9,9,0,0,1-3.95,2.92,13,13,0,0,1-1.95.57,8.41,8.41,0,0,1-1.63.23l9.42,12.53Zm-10.4-25.66v8.33h4.61a10.87,10.87,0,0,0,4.43-.75,4.38,4.38,0,0,0,1.79-1.37,3.22,3.22,0,0,0,.75-2.07,3.58,3.58,0,0,0-1.32-2.73,6.06,6.06,0,0,0-4.23-1.41Z"/><path class="cls-2" d="M341.51,167.46a12,12,0,0,1-4.73-.94,11.77,11.77,0,0,1-3.93-2.69,12.45,12.45,0,0,1-3.58-8.75V136.2h5.32v18.88a7.23,7.23,0,0,0,.52,2.75,6.88,6.88,0,0,0,12.76,0,7.42,7.42,0,0,0,.51-2.75V136.2h5.32v18.88a12.46,12.46,0,0,1-.91,4.71,13.07,13.07,0,0,1-2.62,4,12.18,12.18,0,0,1-4,2.69A11.89,11.89,0,0,1,341.51,167.46Z"/><path class="cls-2" d="M373.66,167.46a15,15,0,0,1-7.83-2.14,15.85,15.85,0,0,1-5.7-5.77,15.82,15.82,0,0,1,5.7-21.56,15.19,15.19,0,0,1,7.83-2.12,15.62,15.62,0,0,1,6.34,1.34,15.3,15.3,0,0,1,5.25,3.84l-3.91,3.53a10.43,10.43,0,0,0-3.51-2.54,10.18,10.18,0,0,0-9.37.52,10.59,10.59,0,0,0,0,18.19,10,10,0,0,0,9.62.4,10.9,10.9,0,0,0,3.61-2.87l4.14,3.29a15.56,15.56,0,0,1-12.2,5.89Z"/><path class="cls-2" d="M412.27,136.2v5.32H403v25.66h-5.27V141.52H388.4V136.2Z"/><path class="cls-2" d="M417.07,167.18v-31h5.32v31Z"/><path class="cls-2" d="M443.15,167.46a15.19,15.19,0,0,1-7.83-2.12,15.77,15.77,0,0,1-5.73-5.74,15.88,15.88,0,0,1,0-15.82,15.77,15.77,0,0,1,5.73-5.74A15.54,15.54,0,0,1,451,138a15.74,15.74,0,0,1,5.72,5.74,15.82,15.82,0,0,1,0,15.82,15.74,15.74,0,0,1-5.72,5.74A15.2,15.2,0,0,1,443.15,167.46Zm0-26.27a10,10,0,0,0-5.2,1.41,10.58,10.58,0,0,0,0,18.17,10.25,10.25,0,0,0,10.41,0,10.41,10.41,0,0,0,3.76-3.81,10.69,10.69,0,0,0,0-10.54,10.44,10.44,0,0,0-3.76-3.82A10,10,0,0,0,443.15,141.19Z"/><path class="cls-2" d="M468.48,148.77v18.41h-5.27V135.73l19.11,19.11V136.2h5.28v31.68Z"/></g></g></svg>