<?xml version="1.0" encoding="utf-8"?>
<!-- Generator: Adobe Illustrator 24.2.0, SVG Export Plug-In . SVG Version: 6.00 Build 0)  -->
<svg version="1.1" id="Layer_1" xmlns="http://www.w3.org/2000/svg" xmlns:xlink="http://www.w3.org/1999/xlink" x="0px" y="0px"
	 viewBox="0 0 90 56.3" style="enable-background:new 0 0 90 56.3;" xml:space="preserve">
<style type="text/css">
	.st0{fill:#21C16C;}
</style>
<path class="st0" d="M0.2,20.9c1.3,8.5,8.5,14.9,17.1,15.3C15.2,44,10.1,47.1,3.9,48.9c-0.3,0.1-0.6,0.4-0.5,0.8l1,6.2
	c0,0,0.1,0.5,0.9,0.4c21.4-2.4,35.9-18.7,33.2-38.5C36,4.1,25.3-1.2,15.4,0.2C5.5,1.8-1.3,11,0.2,20.9L0.2,20.9z M68.5,36.2
	c-2,7.8-7.3,10.9-13.4,12.7c-0.3,0.1-0.6,0.4-0.5,0.8l0.9,6.2c0,0,0.1,0.5,0.9,0.4C77.8,54,92.2,37.7,89.7,17.9
	C87.1,4.1,76.3-1.2,66.5,0.2C56.6,1.7,49.9,11,51.4,20.9c0,0,0,0,0,0.1C52.6,29.5,59.8,35.9,68.5,36.2z"/>
</svg>
