<svg xmlns="http://www.w3.org/2000/svg" viewBox="0 0 100 100"><defs><style>.cls-1{fill:#cb3233;}.cls-2{fill:#fff;}.cls-3{fill:#353738;}</style></defs><g id="Layer_2" data-name="Layer 2"><g id="NAV"><path class="cls-1" d="M50,0a50,50,0,1,0,50,50A50,50,0,0,0,50,0ZM82.74,82.74A46.3,46.3,0,0,1,17.26,17.26,46.3,46.3,0,0,1,82.74,82.74Z"/><path class="cls-2" d="M82.74,17.26A46.3,46.3,0,0,0,17.26,82.74,46.3,46.3,0,0,0,82.74,17.26ZM60.26,59.43l-1.85-3.21,11.23-6.49L51.85,26V82.76L9.25,58.16,39.74,40.57l1.84,3.21L30.35,50.26,48.14,74V17.23l42.6,24.61Z"/><path class="cls-3" d="M48.14,17.23V74L30.35,50.26l11.23-6.48-1.84-3.21L9.25,58.16l42.6,24.6V26L69.64,49.73,58.41,56.22l1.85,3.21L90.74,41.84ZM16.66,58.16l10.46-6,16,21.29ZM56.91,26.57,83.33,41.84l-10.45,6Z"/><polygon class="cls-2" points="43.09 73.42 16.66 58.16 27.12 52.13 43.09 73.42"/><polygon class="cls-2" points="83.33 41.84 72.88 47.86 56.91 26.57 83.33 41.84"/></g></g></svg>