<?xml version="1.0" encoding="utf-8"?>
<!-- Generator: Adobe Illustrator 22.1.0, SVG Export Plug-In . SVG Version: 6.00 Build 0)  -->
<svg version="1.1" id="Layer_1" xmlns="http://www.w3.org/2000/svg" xmlns:xlink="http://www.w3.org/1999/xlink" x="0px" y="0px"
	 viewBox="0 0 2304 1792" style="enable-background:new 0 0 2304 1792;" xml:space="preserve">
<style type="text/css">
	.st0{fill:#220000;}
</style>
<path class="st0" d="M1437,913c0,138.7-29,262.2-87,370.5s-140.7,193-248,254S871.7,1629,733,1629c-99.3,0-194.3-19.3-285-58
	s-168.7-90.7-234-156S96.7,1271.7,58,1181S0,995.3,0,896s19.3-194.3,58-285s90.7-168.7,156-234s143.3-117.3,234-156s185.7-58,285-58
	c190.7,0,354.3,64,491,192l-199,191c-78-75.3-175.3-113-292-113c-82,0-157.8,20.7-227.5,62S380.7,592.5,340,663.5S279,812,279,896
	s20.3,161.5,61,232.5s95.8,127.2,165.5,168.5s145.5,62,227.5,62c55.3,0,106.2-7.7,152.5-23s84.5-34.5,114.5-57.5
	s56.2-49.2,78.5-78.5s38.7-57,49-83s17.5-50.7,21.5-74H733V791h692C1433,833,1437,873.7,1437,913z M2304,791v210h-209v209h-210v-209
	h-209V791h209V582h210v209H2304z"/>
</svg>
